<?xml version="1.0" encoding="UTF-8"?>
<svg id="Layer_1" data-name="Layer 1" xmlns="http://www.w3.org/2000/svg" viewBox="0 0 75.66 24">
  <defs>
    <style>
      .cls-1 {
        fill: #0c0c0e;
      }

      .cls-2 {
        fill: #5050ff;
      }
    </style>
  </defs>
  <path class="cls-2" d="M10.02.13L.25,5.78c-.15.09-.25.25-.25.43v3.47c0,.18.1.34.25.43l9.78,5.64c.31.18.69.18,1,0l9.78-5.64c.15-.09.25-.25.25-.43v-3.47c0-.18-.1-.34-.25-.43L11.02.13c-.31-.18-.69-.18-1,0ZM10.28,11.36l-5.53-3.19c-.17-.1-.17-.34,0-.43l5.53-3.19c.16-.09.35-.09.5,0l5.53,3.19c.17.1.17.34,0,.43l-5.53,3.19c-.16.09-.35.09-.5,0Z"/>
  <path class="cls-2" d="M.38,13.75l9.9,5.72c.15.09.35.09.5,0l9.9-5.72c.17-.1.38.02.38.22v3.83c0,.18-.1.34-.25.43l-9.78,5.64c-.31.18-.69.18-1,0L.25,18.22c-.15-.09-.25-.25-.25-.43v-3.83c0-.19.21-.31.38-.22Z"/>
  <g>
    <g>
      <path class="cls-1" d="M30.63,6.72h0c-.45.86-1.27,1.34-2.38,1.34-2.06,0-3.25-1.44-3.25-3.5,0-2.21,1.46-3.67,3.59-3.67,1.6,0,2.71.85,3.17,2.09l-1.35.35c-.27-.66-.8-1.21-1.84-1.21-1.24,0-2.09.92-2.09,2.42s.85,2.29,2.02,2.29c.9,0,1.65-.49,1.89-1.37h-1.84v-1.08h3.36v3.57h-1.11l-.16-1.23Z"/>
      <path class="cls-1" d="M32.78,1h3.56c1.28,0,2.06.64,2.06,1.74,0,.85-.43,1.46-1.08,1.6v.04c.72.13,1.27.75,1.27,1.7,0,1.16-.88,1.87-2.36,1.87h-3.45V1ZM35.88,3.87c.63,0,1-.2,1-.81,0-.57-.3-.83-.94-.83h-1.72v1.64h1.67ZM35.95,6.72c.76,0,1.11-.22,1.11-.85,0-.57-.32-.84-1.09-.84h-1.76v1.68h1.74Z"/>
      <path class="cls-1" d="M44.69,6.72h0c-.45.86-1.27,1.34-2.38,1.34-2.06,0-3.25-1.44-3.25-3.5,0-2.21,1.46-3.67,3.59-3.67,1.6,0,2.71.85,3.17,2.09l-1.35.35c-.27-.66-.8-1.21-1.84-1.21-1.24,0-2.09.92-2.09,2.42s.85,2.29,2.02,2.29c.9,0,1.65-.49,1.89-1.37h-1.84v-1.08h3.36v3.57h-1.11l-.16-1.23Z"/>
    </g>
    <g>
      <path class="cls-1" d="M24.99,10.42h2.4v8.27h4.57v2.07h-6.97v-10.34Z"/>
      <path class="cls-1" d="M32.26,16.71c0-2.56,1.76-4.24,4.47-4.24s4.47,1.68,4.47,4.24-1.76,4.24-4.47,4.24-4.47-1.68-4.47-4.24ZM36.73,19.23c1.28,0,2-1.02,2-2.51s-.72-2.51-2-2.51-2,1.02-2,2.51.72,2.51,2,2.51Z"/>
      <path class="cls-1" d="M41.79,16.71c0-2.75,1.75-4.24,3.92-4.24,1.07,0,2.05.48,2.59,1.11v-.91h2.4v10.77l-2.4.57v-4.2c-.5.67-1.52,1.15-2.59,1.15-2.18,0-3.92-1.49-3.92-4.24ZM46.24,19.19c1.22,0,2.08-.99,2.08-2.27v-.4c0-1.3-.86-2.29-2.07-2.29s-2,1.04-2,2.48.78,2.48,1.99,2.48Z"/>
      <path class="cls-1" d="M51.79,18.7c0-1.3,1.01-1.87,2.26-2.24l3.51-1.02c-.05-.85-.74-1.25-1.54-1.25s-1.78.35-2.34,1.7l-1.87-.74c.85-2.05,2.53-2.67,4.39-2.67,2.45,0,3.71,1.2,3.71,3.2v2.5c0,.62.18.9.67.9.22,0,.51-.05.72-.14v1.7c-.38.18-.8.3-1.49.3-1.15,0-1.84-.62-2-1.38h-.06c-.61.88-1.62,1.39-3.11,1.39-1.75,0-2.85-.99-2.85-2.24ZM55.31,19.16c1.07,0,2-.5,2.24-1.52v-.77l-2.45.82c-.51.18-.88.34-.88.75s.38.72,1.09.72Z"/>
      <path class="cls-1" d="M62.51,12.66l.47-1.97h1.65v1.97h2.13v1.76h-2.13v3.39c0,.99.26,1.31,1.1,1.31.32,0,.67-.05,1.07-.13v1.7c-.62.14-1.15.22-1.94.22-1.76,0-2.64-.77-2.64-2.34v-4.16h-1.17v-1.76h1.46Z"/>
      <path class="cls-1" d="M71.42,20.94c-2.69,0-4.28-1.65-4.28-4.13s1.63-4.34,4.4-4.34,4.26,1.89,4.1,4.77h-6.1c.18,1.25.91,1.94,2.1,1.94.98,0,1.7-.37,1.99-1.28l1.95.59c-.67,1.75-2.43,2.45-4.16,2.45ZM73.3,15.77c-.16-1.1-.86-1.6-1.79-1.6-.98,0-1.66.54-1.89,1.6h3.68Z"/>
    </g>
  </g>
</svg>